<?xml version="1.0" encoding="UTF-8" standalone="no"?>
<!-- Created with Inkscape (http://www.inkscape.org/) -->

<svg
   xmlns:dc="http://purl.org/dc/elements/1.1/"
   xmlns:cc="http://creativecommons.org/ns#"
   xmlns:rdf="http://www.w3.org/1999/02/22-rdf-syntax-ns#"
   xmlns:svg="http://www.w3.org/2000/svg"
   xmlns="http://www.w3.org/2000/svg"
   xmlns:xlink="http://www.w3.org/1999/xlink"
   xmlns:sodipodi="http://sodipodi.sourceforge.net/DTD/sodipodi-0.dtd"
   xmlns:inkscape="http://www.inkscape.org/namespaces/inkscape"
   id="svg1"
   sodipodi:version="0.32"
   inkscape:version="0.48.2 r9819"
   width="48"
   height="48"
   sodipodi:docname="BrauBerry-logo.svg"
   version="1.1"
   inkscape:export-filename="BrauBerry.png"
   inkscape:export-xdpi="622.65344"
   inkscape:export-ydpi="622.65344">
  <defs
     id="defs3">
    <linearGradient
       id="linearGradient3669">
      <stop
         id="stop3671"
         offset="0"
         style="stop-color:#ffd73b;stop-opacity:1;" />
      <stop
         id="stop3673"
         offset="1"
         style="stop-color:#ee8400;stop-opacity:1;" />
    </linearGradient>
    <linearGradient
       inkscape:collect="always"
       xlink:href="#linearGradient3669"
       id="linearGradient3021"
       x1="25"
       y1="25"
       x2="33"
       y2="25.084297"
       gradientUnits="userSpaceOnUse"
       gradientTransform="matrix(0.96428571,0,0,0.96428571,0.89285729,0.535714)" />
    <linearGradient
       inkscape:collect="always"
       xlink:href="#linearGradient3669"
       id="linearGradient3023"
       x1="20"
       y1="25"
       x2="25.337121"
       y2="25.130274"
       gradientUnits="userSpaceOnUse"
       gradientTransform="matrix(0.96428571,0,0,0.96428571,0.89285729,0.535714)" />
    <linearGradient
       inkscape:collect="always"
       xlink:href="#linearGradient3669"
       id="linearGradient3025"
       x1="12"
       y1="25.126392"
       x2="17.337448"
       y2="25.126392"
       gradientUnits="userSpaceOnUse"
       gradientTransform="matrix(0.96428571,0,0,0.96428571,0.89285729,0.535714)" />
    <linearGradient
       inkscape:collect="always"
       xlink:href="#linearGradient3669"
       id="linearGradient3027"
       x1="8.25"
       y1="24.046875"
       x2="15"
       y2="25"
       gradientUnits="userSpaceOnUse"
       gradientTransform="matrix(0.96428571,0,0,0.96428571,0.89285729,0.535714)" />
    <linearGradient
       inkscape:collect="always"
       xlink:href="#linearGradient3669"
       id="linearGradient3033"
       x1="43"
       y1="28"
       x2="32"
       y2="19"
       gradientUnits="userSpaceOnUse"
       gradientTransform="matrix(0.96428571,0,0,0.96428571,0.89285729,0.535714)" />
    <linearGradient
       inkscape:collect="always"
       xlink:href="#linearGradient3669"
       id="linearGradient3037"
       gradientUnits="userSpaceOnUse"
       x1="31.831579"
       y1="33.34737"
       x2="2"
       y2="17"
       gradientTransform="matrix(0.96428571,0,0,0.96428571,0.89285729,0.535714)" />
    <linearGradient
       id="linearGradient3669-3">
      <stop
         id="stop3671-5"
         offset="0"
         style="stop-color:#ffd73b;stop-opacity:1;" />
      <stop
         id="stop3673-1"
         offset="1"
         style="stop-color:#ee8400;stop-opacity:1;" />
    </linearGradient>
    <linearGradient
       id="linearGradient3637">
      <stop
         id="stop3639-0"
         offset="0"
         style="stop-color:#f9f9f9;stop-opacity:0.98518521;" />
      <stop
         id="stop3641"
         offset="1"
         style="stop-color:#d5d5d5;stop-opacity:1;" />
    </linearGradient>
    <radialGradient
       inkscape:collect="always"
       xlink:href="#linearGradient3637"
       id="radialGradient3154"
       cx="14.736842"
       cy="4.2050343"
       fx="14.736842"
       fy="4.2050343"
       r="15.925107"
       gradientTransform="matrix(2.6519963,0.56778482,-0.20490655,0.95711163,-23.483571,-5.1499373)"
       gradientUnits="userSpaceOnUse" />
    <linearGradient
       inkscape:collect="always"
       xlink:href="#linearGradient3669-3"
       id="linearGradient3158"
       x1="29"
       y1="35"
       x2="-5"
       y2="63"
       gradientUnits="userSpaceOnUse" />
    <linearGradient
       inkscape:collect="always"
       xlink:href="#linearGradient3637"
       id="linearGradient3948"
       x1="14"
       y1="9"
       x2="12"
       y2="5"
       gradientUnits="userSpaceOnUse"
       gradientTransform="matrix(0.98967797,-0.14330914,0.14330914,0.98967797,-0.58369554,2.7625369)" />
    <linearGradient
       inkscape:collect="always"
       xlink:href="#linearGradient3637"
       id="linearGradient3952"
       x1="28"
       y1="5"
       x2="28"
       y2="9"
       gradientUnits="userSpaceOnUse" />
    <filter
       inkscape:collect="always"
       id="filter4024"
       x="-0.35549114"
       width="1.7109823"
       y="-0.29492427"
       height="1.5898485">
      <feGaussianBlur
         inkscape:collect="always"
         stdDeviation="0.49154045"
         id="feGaussianBlur4026" />
    </filter>
    <filter
       inkscape:collect="always"
       id="filter4028"
       x="-0.58370418"
       width="2.1674084"
       y="-0.12971207"
       height="1.2594241">
      <feGaussianBlur
         inkscape:collect="always"
         stdDeviation="0.49154045"
         id="feGaussianBlur4030" />
    </filter>
    <filter
       inkscape:collect="always"
       id="filter4032"
       x="-0.43777819"
       width="1.8755564"
       y="-0.16187612"
       height="1.3237522">
      <feGaussianBlur
         inkscape:collect="always"
         stdDeviation="0.49154045"
         id="feGaussianBlur4034" />
    </filter>
    <filter
       inkscape:collect="always"
       id="filter4036"
       x="-0.5188483"
       width="2.0376966"
       y="-0.19456809"
       height="1.3891362">
      <feGaussianBlur
         inkscape:collect="always"
         stdDeviation="0.49154045"
         id="feGaussianBlur4038" />
    </filter>
    <filter
       inkscape:collect="always"
       id="filter4040"
       x="-0.2223635"
       width="1.444727"
       y="-0.46365089"
       height="1.9273018">
      <feGaussianBlur
         inkscape:collect="always"
         stdDeviation="0.49154045"
         id="feGaussianBlur4042" />
    </filter>
    <filter
       inkscape:collect="always"
       id="filter4062">
      <feGaussianBlur
         inkscape:collect="always"
         stdDeviation="0.29952589"
         id="feGaussianBlur4064" />
    </filter>
    <filter
       inkscape:collect="always"
       id="filter4072"
       x="-0.045598789"
       width="1.0911976"
       y="-0.10994769"
       height="1.2198954">
      <feGaussianBlur
         inkscape:collect="always"
         stdDeviation="0.17919525"
         id="feGaussianBlur4074" />
    </filter>
    <filter
       inkscape:collect="always"
       id="filter3642"
       x="-0.066502983"
       width="1.133006"
       y="-0.38793407"
       height="1.7758681">
      <feGaussianBlur
         inkscape:collect="always"
         stdDeviation="0.96983517"
         id="feGaussianBlur3644" />
    </filter>
  </defs>
  <sodipodi:namedview
     id="base"
     pagecolor="#ffffff"
     bordercolor="#666666"
     borderopacity="1.0"
     inkscape:pageopacity="0.0"
     inkscape:pageshadow="2"
     inkscape:zoom="10.685581"
     inkscape:cx="20.280873"
     inkscape:cy="29.90622"
     inkscape:window-width="1680"
     inkscape:window-height="1028"
     inkscape:window-x="-8"
     inkscape:window-y="-8"
     showgrid="false"
     inkscape:window-maximized="1"
     inkscape:current-layer="svg1"
     showguides="true"
     inkscape:guide-bbox="true"
     inkscape:snap-global="true">
    <inkscape:grid
       type="xygrid"
       id="grid2861" />
  </sodipodi:namedview>
  <metadata
     id="metadata4">
    <rdf:RDF>
      <cc:Work
         rdf:about="">
        <dc:format>image/svg+xml</dc:format>
        <dc:type
           rdf:resource="http://purl.org/dc/dcmitype/StillImage" />
        <dc:title></dc:title>
      </cc:Work>
    </rdf:RDF>
  </metadata>
  <g
     id="g3173"
     transform="matrix(0.03964162,0.01284152,-0.01136751,0.03509138,15.466693,-18.262073)"
     inkscape:export-filename="BrauBerry.png"
     inkscape:export-xdpi="900.3338"
     inkscape:export-ydpi="900.3338">
    <path
       id="path3139"
       d="m 158.38,1.6562 c -3.6193,0.11232 -7.5172,1.4493 -11.938,4.9375 -10.83,-4.1763 -21.33,-5.6271 -30.72,2.8751 C 101.222,7.588 96.51,11.469 92.94,16 89.757,15.934 69.121,12.728 59.658,26.844 35.877,24.03 28.361,40.832 36.877,56.5 c -4.8569,7.519 -9.8895,14.947 1.4688,29.281 -4.018,7.9835 -1.5274,16.644 7.9375,27.125 -2.4979,11.223 2.4121,19.141 11.219,25.312 -1.6471,15.358 14.084,24.287 18.781,27.469 1.8037,8.9487 5.5629,17.393 23.531,22.062 2.9632,13.336 13.762,15.639 24.219,18.438 -34.562,20.09 -64.201,46.523 -64,111.38 l -5.0625,9.0312 c -39.63,24.1 -75.285,101.56 -19.53,164.52 3.6419,19.708 9.7496,33.864 15.188,49.531 8.1338,63.131 61.218,92.692 75.219,96.188 20.517,15.628 42.368,30.457 71.938,40.844 27.875,28.749 58.074,39.706 88.438,39.688 0.44515,-2.8e-4 0.89853,0.005 1.3438,0 30.364,0.0189 60.562,-10.938 88.438,-39.688 29.569,-10.387 51.421,-25.216 71.938,-40.844 14.001,-3.4959 67.085,-33.057 75.219,-96.188 5.4379,-15.667 11.546,-29.823 15.188,-49.531 55.754,-62.965 20.1,-140.43 -19.531,-164.53 l -5.07,-9.03 c 0.20067,-64.852 -29.438,-91.285 -64,-111.38 10.457,-2.7984 21.256,-5.1014 24.219,-18.438 17.968,-4.6698 21.728,-13.114 23.531,-22.062 4.6978,-3.1813 20.428,-12.111 18.781,-27.469 8.8067,-6.1716 13.717,-14.09 11.219,-25.312 9.4649,-10.481 11.956,-19.141 7.9375,-27.125 11.36,-14.328 6.32,-21.756 1.47,-29.275 8.51,-15.668 1,-32.47 -22.79,-29.656 -9.46,-14.116 -30.09,-10.91 -33.28,-10.844 -3.57,-4.531 -8.28,-8.412 -22.78,-6.5312 -9.39,-8.5022 -19.89,-7.0514 -30.72,-2.875 -12.86,-10.148 -21.37,-2.0133 -31.09,1.0624 -15.57,-5.0877 -19.13,1.881 -26.78,4.7188 -16.98,-3.5881 -22.14,4.224 -30.28,12.469 l -9.4688,-0.1875 c -25.611,15.093 -38.334,45.826 -42.844,61.625 -4.5121,-15.802 -17.206,-46.535 -42.812,-61.625 l -9.4688,0.1875 c -8.15,-8.245 -13.31,-16.057 -30.29,-12.469 -7.65,-2.8378 -11.2,-9.8065 -26.78,-4.7188 -6.3797,-2.0185 -12.247,-6.2144 -19.156,-6 z"
       inkscape:connector-curvature="0"
       style="fill:#000000" />
    <path
       id="path3141"
       d="m 107.39,68.056 c 67.948,35.031 107.45,63.369 129.09,87.504 -11.082,44.418 -68.896,46.445 -90.036,45.199 4.3284,-2.0147 7.9399,-4.4278 9.2205,-8.1357 -5.3045,-3.7698 -24.113,-0.39719 -37.244,-7.7742 5.0441,-1.045 7.4035,-2.063 9.7629,-5.7854 -12.406,-3.9567 -25.769,-7.3664 -33.628,-13.921 4.2413,0.0524 8.2012,0.9488 13.74,-2.8927 -11.112,-5.9882 -22.969,-10.734 -32.181,-19.887 5.7452,-0.14063 11.939,-0.0568 13.74,-2.1695 -10.17,-6.3007 -18.751,-13.308 -25.854,-20.972 8.04,0.97052 11.435,0.13478 13.379,-1.2656 -7.6878,-7.8742 -17.418,-14.523 -22.057,-24.226 5.9696,2.0575 11.431,2.8451 15.368,-0.1808 -2.6124,-5.8935 -13.805,-9.3696 -20.249,-23.142 6.2844,0.60938 12.95,1.3711 14.283,0 -2.917,-11.884 -7.922,-18.565 -12.831,-25.487 13.45,-0.2 33.828,0.052 32.905,-1.085 l -8.3165,-8.4973 c 13.138,-3.5372 26.581,0.56816 36.34,3.6159 4.3819,-3.4577 -0.0776,-7.83 -5.4238,-12.294 11.165,1.4906 21.254,4.0574 30.373,7.5934 4.8724,-4.3993 -3.1639,-8.7987 -7.051,-13.198 17.249,3.2726 24.557,7.8707 31.82,12.475 5.2694,-5.0508 0.30166,-9.3433 -3.2543,-13.74 13.006,4.817 19.705,11.036 26.758,17.175 2.3912,-3.2271 6.0749,-5.5924 1.6272,-13.379 9.2342,5.3227 16.189,11.595 21.334,18.622 5.7134,-3.6379 3.4039,-8.613 3.4351,-13.198 9.5966,7.8065 15.687,16.114 23.142,24.226 1.5017,-1.0934 2.8166,-4.8017 3.9775,-10.667 22.895,22.212 55.246,78.158 8.3165,100.34 -39.94,-32.94 -87.64,-56.883 -140.5,-74.844 z"
       inkscape:connector-curvature="0"
       style="fill:#75a928" />
    <path
       id="path3143"
       d="m 467.92,68.056 c -67.94,35.034 -107.44,63.364 -129.08,87.504 11.082,44.418 68.896,46.445 90.036,45.199 -4.3284,-2.0147 -7.9399,-4.4278 -9.2205,-8.1357 5.3045,-3.7698 24.113,-0.39719 37.244,-7.7742 -5.0441,-1.045 -7.4035,-2.063 -9.7629,-5.7854 12.406,-3.9567 25.769,-7.3664 33.628,-13.921 -4.2413,0.0524 -8.2012,0.9488 -13.74,-2.8927 11.112,-5.9882 22.969,-10.734 32.181,-19.887 -5.7452,-0.14063 -11.939,-0.0568 -13.74,-2.1695 10.17,-6.3007 18.751,-13.308 25.854,-20.972 -8.04,0.97052 -11.435,0.13478 -13.379,-1.2656 7.6878,-7.8742 17.418,-14.523 22.057,-24.226 -5.9696,2.0575 -11.431,2.8451 -15.368,-0.1808 2.6124,-5.8935 13.805,-9.3696 20.249,-23.142 -6.2844,0.60938 -12.95,1.3711 -14.283,0 2.9223,-11.889 7.9275,-18.57 12.836,-25.492 -13.45,-0.19973 -33.828,0.05235 -32.905,-1.0848 l 8.3165,-8.4973 c -13.138,-3.5372 -26.581,0.56816 -36.34,3.6159 -4.3819,-3.4577 0.0776,-7.83 5.4238,-12.294 -11.165,1.4906 -21.254,4.0574 -30.373,7.5934 -4.8724,-4.3993 3.1639,-8.7987 7.051,-13.198 -17.249,3.2726 -24.557,7.8707 -31.82,12.475 -5.2694,-5.0508 -0.30166,-9.3433 3.2543,-13.74 -13.006,4.817 -19.705,11.036 -26.758,17.175 -2.3912,-3.2271 -6.0749,-5.5924 -1.6272,-13.379 -9.2342,5.3227 -16.189,11.595 -21.334,18.622 -5.7134,-3.6379 -3.4039,-8.613 -3.4351,-13.198 -9.5966,7.8065 -15.687,16.114 -23.142,24.226 -1.5017,-1.0934 -2.8166,-4.8017 -3.9775,-10.667 -22.895,22.212 -55.246,78.158 -8.3165,100.34 39.919,-32.947 87.616,-56.888 140.48,-74.849 z"
       inkscape:connector-curvature="0"
       style="fill:#75a928" />
    <path
       id="path3145"
       transform="matrix(1.131107,0,0,1.1280497,-43.139135,-68.310983)"
       d="m 365.2,521.85 a 71.956,66.532 0 1 1 -143.91,0 71.956,66.532 0 1 1 143.91,0 z"
       inkscape:connector-curvature="0"
       style="fill:#bc1142" />
    <path
       id="path3147"
       transform="matrix(0.76741684,-1.1613112,2.171115,1.4224368,-560.88858,217.68859)"
       d="m 262.84,276.65 a 61.875,28.125 0 1 1 -123.75,0 61.875,28.125 0 1 1 123.75,0 z"
       inkscape:connector-curvature="0"
       style="fill:#bc1142" />
    <path
       id="path3149"
       transform="matrix(-0.76741684,-1.1613112,-2.171115,1.4224368,1134.8288,213.68859)"
       d="m 262.84,276.65 a 61.875,28.125 0 1 1 -123.75,0 61.875,28.125 0 1 1 123.75,0 z"
       inkscape:connector-curvature="0"
       style="fill:#bc1142" />
    <path
       id="path3151"
       d="M 72.91,342.09 C 109.32,332.33 85.202,492.72 55.577,479.56 22.99,453.35 12.494,376.59 72.91,342.09 z"
       inkscape:connector-curvature="0"
       style="fill:#bc1142" />
    <path
       id="path3153"
       d="M 493.68,340.09 C 457.266,330.3331 481.388,490.73 511.013,477.57 543.6,451.357 554.096,374.59 493.68,340.09 z"
       inkscape:connector-curvature="0"
       style="fill:#bc1142" />
    <path
       id="path3155"
       d="m 369.97,220.65 c 62.835,-10.61 115.12,26.722 113.01,94.858 -2.0669,26.121 -136.16,-90.969 -113.01,-94.858 z"
       inkscape:connector-curvature="0"
       style="fill:#bc1142" />
    <path
       id="path3157"
       d="M 196.36,218.65 C 133.52,208.04 81.24,245.38 83.35,313.51 85.417,339.63 219.51,222.54 196.36,218.65 z"
       inkscape:connector-curvature="0"
       style="fill:#bc1142" />
    <path
       id="path3159"
       d="m 286.62,202.76 c -37.503,-0.97548 -73.495,27.834 -73.582,44.544 -0.10462,20.304 29.651,41.093 73.837,41.62 45.123,0.32321 73.916,-16.64 74.061,-37.594 0.16484,-23.74 -41.039,-48.937 -74.317,-48.571 z"
       inkscape:connector-curvature="0"
       style="fill:#bc1142" />
    <path
       id="path3161"
       d="m 288.91,619.12 c 32.697,-1.4271 76.571,10.532 76.657,26.396 0.5427,15.405 -39.79,50.211 -78.826,49.538 -40.427,1.7439 -80.069,-33.116 -79.55,-45.199 -0.60506,-17.716 49.226,-31.548 81.719,-30.735 z"
       inkscape:connector-curvature="0"
       style="fill:#bc1142" />
    <path
       id="path3163"
       d="m 168.14,525.1 c 23.279,28.046 33.891,77.319 14.464,91.844 -18.379,11.088 -63.012,6.5216 -94.736,-39.052 -21.395,-38.242 -18.638,-77.157 -3.6159,-88.589 22.464,-13.684 57.173,4.799 83.889,35.797 z"
       inkscape:connector-curvature="0"
       style="fill:#bc1142" />
    <path
       id="path3165"
       d="m 405.02,516.21 c -25.187,29.502 -39.212,83.31 -20.838,100.64 17.568,13.464 64.729,11.582 99.566,-36.756 25.296,-32.465 16.82,-86.682 2.3708,-101.08 -21.464,-16.602 -52.277,4.6449 -81.099,37.188 z"
       inkscape:connector-curvature="0"
       style="fill:#bc1142" />
  </g>
  <path
     sodipodi:type="arc"
     style="fill:#000000;fill-opacity:0.76859502000000002;fill-rule:evenodd;stroke:none;filter:url(#filter3642)"
     id="path3160"
     sodipodi:cx="22.5"
     sodipodi:cy="40"
     sodipodi:rx="17.5"
     sodipodi:ry="3"
     d="M 40,40 A 17.5,3 0 1 1 5,40 17.5,3 0 1 1 40,40 z"
     transform="matrix(0.85112782,0,0,1,2.5969925,0.25263158)" />
  <path
     style="color:#000000;fill:url(#linearGradient3033);fill-opacity:1;stroke:none;stroke-width:1px;marker:none;visibility:visible;display:inline;overflow:visible;enable-background:accumulate"
     d="M 32.714286,17.892857 C 37.457055,13.59974 42.511214,15.03986 41.392857,21.75 40.428572,27.535714 31.75,31.392857 31.75,31.392857 l 0,-3.857143 c 0,0 5.318775,-1.989388 5.785714,-3.857143 C 38.5,19.821428 34.642857,19.821428 32.714286,21.75 l 0,-3.857143 z"
     id="path3031"
     sodipodi:nodetypes="csccscc" />
  <path
     style="color:#000000;fill:url(#linearGradient3158);stroke:none;stroke-width:1px;marker:none;visibility:visible;display:inline;overflow:visible;enable-background:accumulate;fill-opacity:1"
     d="M 9.5815791,35.696616 C 6.6785716,35.25 6.6785716,39.107143 8.607143,41.035714 c 3.857143,1.928571 24.611358,2.628121 26.035714,0 1.299578,-2.397889 1.928572,-3.857143 0,-5.785714 -2.156208,-2.156209 -23.122556,0.893233 -25.0612779,0.446616 z"
     id="path3029"
     sodipodi:nodetypes="ccssc" />
  <path
     style="color:#000000;fill:url(#linearGradient3037);fill-opacity:1;stroke:none;stroke-width:1px;marker:none;visibility:visible;display:inline;overflow:visible;enable-background:accumulate"
     d="m 8.607143,10.178571 c 8.794261,2.54516 17.457777,2.21394 26.035714,0 -2.12623,9.740472 -1.987083,16.826548 0,27 -9.203489,3.543194 -17.68894,2.239629 -26.035714,0 0.6036793,-8.877663 1.479927,-14.371846 0,-27 z"
     id="path2857"
     sodipodi:nodetypes="ccccc" />
  <path
     sodipodi:nodetypes="ccccc"
     id="path3016"
     d="m 12.464286,15 c 1.972959,-1.219389 3.49576,-0.93825 4.821428,0 0.558596,6.56822 0.288601,12.929293 0,19.285714 -1.607143,1.219725 -3.214285,1.585205 -4.821428,0 0.457352,-4.949906 1.536064,-10.979731 0,-19.285714 z"
     style="fill:url(#linearGradient3025);fill-opacity:0.89285715;stroke:none" />
  <path
     style="fill:url(#linearGradient3027);fill-opacity:0.89285715;stroke:none"
     d="m 8.9687501,13.643973 c 0.7994242,8.676926 0.3611153,13.920046 -0.1205357,20.159598 0.2410715,-0.140817 0.4821428,-0.299184 0.7232143,-0.482143 0.5378453,-6.198067 0.9526413,-12.448869 0,-19.285714 C 9.3742684,13.896172 9.1754636,13.75167 8.9687501,13.643973 z"
     id="rect3007" />
  <path
     style="fill:url(#linearGradient3023);fill-opacity:0.89285715;stroke:none"
     d="M 20.178572,15 C 21.142857,14.035714 23.071429,14.035714 25,15 c 0.499112,6.678127 0.362416,14.002637 0,20.25 -1.607143,1.270747 -3.214285,1.327494 -4.821428,0 -0.271812,-6.156759 -0.374334,-13.447095 0,-20.25 z"
     id="rect3009"
     sodipodi:nodetypes="ccccc" />
  <path
     style="fill:url(#linearGradient3021);fill-opacity:0.89285715;stroke:none"
     d="m 27.892857,15 c 1.43455,-0.57531 2.764636,-1.498834 4.821429,0 -1.380697,6.888804 -0.468614,13.013347 0,19.285714 -1.524441,0.992423 -3.082855,1.577172 -4.821429,0 -0.637876,-6.428572 -1.070538,-12.857143 0,-19.285714 z"
     id="rect3011"
     sodipodi:nodetypes="ccccc" />
  <path
     style="color:#000000;fill:url(#radialGradient3154);stroke:none;stroke-width:1px;marker:none;visibility:visible;display:inline;overflow:visible;enable-background:accumulate;fill-opacity:1"
     d="m 9.7439851,19.618421 c -0.1725564,0.203007 -3.0654135,0.203007 -3.0654135,-1.725564 0,-1.928572 -0.9642857,-0.964286 -0.9642857,-4.821429 C 3.7799137,8.6710485 8.7380896,2.0850549 13.428572,2.4642854 18.736455,3.7814417 22,0 28.857143,4.3928569 c 3.857143,0.9642857 5.785714,0 6.75,2.8928571 0.964286,2.892857 2.892857,8.678571 0,5.785714 C 32.714286,10.178571 32,11 32,12 c 0,3.857143 -2.269925,3.771428 -4.634962,2.421428 -2.365038,-1.35 -6.222181,-4.242857 -7.186466,-0.385714 -0.964286,3.857143 -3.857143,4.821429 -3.857143,1.928571 0,-2.892857 -4.821429,-6.75 -4.821429,-2.892857 0,3.857143 -2.7101502,4.090602 -1.7560149,6.546993 z"
     id="path3035"
     sodipodi:nodetypes="cscccsssssssc" />
  <path
     style="color:#000000;fill:url(#linearGradient3948);stroke:none;stroke-width:1px;marker:none;visibility:visible;display:inline;overflow:visible;enable-background:accumulate"
     d="m 8.6348159,9.4260099 c 0,0 -0.2979237,-0.8822004 1.5381231,-2.1584967 1.836047,-1.2762962 3.255653,1.5494285 4.102021,0.4164414 0.846369,-1.1329871 1.40612,-4.2453301 3.672094,-2.5525925 2.265974,1.6927377 2.265974,1.6927377 2.265974,1.6927377 0,0 -6.415738,5.6408162 -11.5782121,2.6019101 z"
     id="path3946" />
  <path
     style="color:#000000;fill:url(#linearGradient3952);stroke:none;stroke-width:1px;stroke-linecap:butt;stroke-linejoin:miter;stroke-miterlimit:4;stroke-opacity:1;stroke-dasharray:none;stroke-dashoffset:0;marker:none;visibility:visible;display:inline;overflow:visible;enable-background:accumulate"
     d="M 23.242105,5.9789474 C 25.116597,3.9307655 25.666728,5.3629921 26,6 c 0,0 2,-2 3,-1 1,1 1,2 1,2 0,0 -3.852632,2.2947368 -6.757895,-1.0210526 z"
     id="path3950"
     sodipodi:nodetypes="ccscc" />
  <path
     style="color:#000000;fill:#ffffff;stroke:none;stroke-width:1px;stroke-linecap:butt;stroke-linejoin:miter;stroke-miterlimit:4;stroke-opacity:1;stroke-dasharray:none;stroke-dashoffset:0;marker:none;visibility:visible;display:inline;overflow:visible;enable-background:accumulate;filter:url(#filter4024);fill-opacity:0.70535713"
     d="M 9,41 C 7.4370043,38.983521 7.5651059,37.90654 8,37 8.5685388,37.473645 9.8068408,37.724035 11.031579,37.978947 9.7511107,38.382689 7.9330849,38.248874 9,41 z"
     id="path3954"
     sodipodi:nodetypes="cccc" />
  <path
     style="color:#000000;fill:#ffffff;stroke:none;stroke-width:1px;stroke-linecap:butt;stroke-linejoin:miter;stroke-miterlimit:4;stroke-opacity:1;stroke-dasharray:none;stroke-dashoffset:0;marker:none;visibility:visible;display:inline;overflow:visible;enable-background:accumulate;filter:url(#filter4040);fill-opacity:0.70535713"
     d="m 35.368421,16.421052 c 2.442649,-0.09852 4.095643,0.955688 5.305264,1.936843 0,0 -0.926316,-4.042105 -5.305264,-1.936843 z"
     id="path3956"
     sodipodi:nodetypes="ccc" />
  <path
     style="color:#000000;fill:#ffffff;stroke:none;stroke-width:1px;stroke-linecap:butt;stroke-linejoin:miter;stroke-miterlimit:4;stroke-opacity:1;stroke-dasharray:none;stroke-dashoffset:0;marker:none;visibility:visible;display:inline;overflow:visible;enable-background:accumulate;filter:url(#filter4028);fill-opacity:0.70535713"
     d="m 12.8,15.410526 c 0.603118,3.206431 0.662642,5.597473 0.842105,8.168421 0.339488,-3.092716 -0.561595,-7.603226 1.178948,-9.094736 -0.673684,0.09635 -1.347369,0.174263 -2.021053,0.926315 z"
     id="path3958"
     sodipodi:nodetypes="cccc" />
  <path
     style="color:#000000;fill:#ffffff;stroke:none;stroke-width:1px;stroke-linecap:butt;stroke-linejoin:miter;stroke-miterlimit:4;stroke-opacity:1;stroke-dasharray:none;stroke-dashoffset:0;marker:none;visibility:visible;display:inline;overflow:visible;enable-background:accumulate;filter:url(#filter4032);fill-opacity:0.70535713"
     d="m 20.210526,21.894736 0.168421,-6.56842 c 0.842105,-1.100842 1.684211,-0.585921 2.526316,-0.673684 -2.613772,2.07093 -2.130633,4.761241 -2.694737,7.242104 z"
     id="path3960"
     sodipodi:nodetypes="cccc" />
  <path
     style="color:#000000;fill:#ffffff;stroke:none;stroke-width:1px;stroke-linecap:butt;stroke-linejoin:miter;stroke-miterlimit:4;stroke-opacity:1;stroke-dasharray:none;stroke-dashoffset:0;marker:none;visibility:visible;display:inline;overflow:visible;enable-background:accumulate;filter:url(#filter4036);fill-opacity:0.70535713"
     d="m 27.536842,21.221053 -0.08421,-5.305264 c 0.948041,-1.203363 1.525117,-0.551902 2.273684,-0.757894 -1.672536,1.078341 -1.802143,3.699611 -2.189474,6.063158 z"
     id="path3962"
     sodipodi:nodetypes="cccc" />
  <path
     style="color:#000000;fill:#ffffff;stroke:none;stroke-width:1px;stroke-linecap:butt;stroke-linejoin:miter;stroke-miterlimit:4;stroke-opacity:1;stroke-dasharray:none;stroke-dashoffset:0;marker:none;visibility:visible;display:inline;overflow:visible;enable-background:accumulate;filter:url(#filter4062)"
     d="M 6.0631579,11.452632 C 6.0587889,11.129083 8.5402298,3.806802 14.48421,3.6210526 18.694638,3.6585947 23.325286,3.2058799 26.273684,4.7157895 25.137698,1.9531869 18.54766,2.5801172 14.652632,3.2842105 12.241068,1.6113414 5.7244669,5.0704486 6.0631579,11.452632 z"
     id="path4044"
     sodipodi:nodetypes="ccccc" />
  <path
     style="color:#000000;fill:#ffffff;stroke:none;stroke-width:1px;stroke-linecap:butt;stroke-linejoin:miter;stroke-miterlimit:4;stroke-opacity:1;stroke-dasharray:none;stroke-dashoffset:0;marker:none;visibility:visible;display:inline;overflow:visible;enable-background:accumulate;filter:url(#filter4072)"
     d="M 9.0947368,9.0105263 C 10.302889,6.9513385 12.216673,7.361864 14.315789,8.4210526 15.992224,4.2235072 17.293933,4.7100512 18.526316,6.0631579 16.502288,4.9166456 15.478804,7.0219036 14.315789,8.6736842 12.453125,8.2355549 10.5262,7.5082509 9.0947368,9.0105263 z"
     id="path4066"
     sodipodi:nodetypes="ccccc" />
</svg>
